<svg width="32px" height="28px" viewBox="0 0 32 28" version="1.1" xmlns="http://www.w3.org/2000/svg" xmlns:xlink="http://www.w3.org/1999/xlink">
    <!-- Generator: Sketch 48.2 (47327) - http://www.bohemiancoding.com/sketch -->
    <title>photo-camera</title>
    <desc>Created with Sketch.</desc>
    <defs></defs>
    <g id="tort_constructor_v2-copy" stroke="none" stroke-width="1" fill="none" fill-rule="evenodd" transform="translate(-1083.000000, -254.000000)">
        <g id="photo-camera" transform="translate(1083.000000, 254.000000)" fill="#C2C2C2" fill-rule="nonzero">
            <path d="M30.7504491,5.56982435 C29.9170066,4.72856015 28.9117035,4.30781018 27.7338392,4.30781018 L24.0004815,4.30781018 L23.1506352,2.01952914 C22.9394288,1.46994327 22.5535012,0.995914415 21.9920936,0.5975015 C21.4309195,0.199265395 20.8559685,0 20.2670071,0 L11.7334598,0 C11.1445568,0 10.5694891,0.199265395 10.008315,0.5975015 C9.44714089,0.995914415 9.06115492,1.46994327 8.85000681,2.01952914 L8.00004376,4.30781018 L4.26668611,4.30781018 C3.08870503,4.30781018 2.08334351,4.72856015 1.24990103,5.56982435 C0.416633677,6.41114748 0,7.4262753 0,8.61544355 L0,23.6922488 C0,24.8814759 0.416633677,25.8967216 1.24990103,26.737809 C2.08334351,27.57925 3.08876341,28 4.26668611,28 L27.7334305,28 C28.9112949,28 29.9165396,27.57925 30.7500405,26.737809 C31.5832495,25.8967216 31.9999999,24.8814759 31.9999999,23.6922488 L31.9999999,8.61544355 C32.0002334,7.4262753 31.583483,6.41114748 30.7504491,5.56982435 Z M21.2751124,21.4797015 C19.8140048,22.9548902 18.0558189,23.6926613 16.0000875,23.6926613 C13.9443561,23.6926613 12.1862869,22.9548902 10.7250627,21.4797015 C9.26383841,20.0047486 8.53337222,18.2292769 8.53337222,16.1542882 C8.53337222,14.0786512 9.26407192,12.3037688 10.7250627,10.8285212 C12.1861118,9.35327362 13.9444145,8.61579717 16.0000875,8.61579717 C18.0557605,8.61579717 19.8140048,9.35345044 21.2751124,10.8285212 C22.7362782,12.303592 23.4668612,14.0786512 23.4668612,16.1542882 C23.4668612,18.2292769 22.7363366,20.0045718 21.2751124,21.4797015 Z" id="Shape"></path>
            <path d="M16,11 C14.6226711,11 13.4450309,11.4890151 12.4670185,12.4671669 C11.4890062,13.4451971 11,14.6226764 11,16.0003344 C11,17.3774452 11.4890062,18.5551069 12.4670185,19.5331371 C13.4450309,20.5109849 14.6226103,21 16,21 C17.3771465,21 18.5549083,20.5109849 19.5329207,19.5331371 C20.510933,18.5551069 21,17.377506 21,16.0003344 C21,14.6227372 20.510933,13.4452579 19.5329207,12.4671669 C18.5549691,11.4890759 17.3771465,11 16,11 Z" id="Shape"></path>
        </g>
    </g>
</svg>